<svg width="22" height="22" viewBox="0 0 22 22" fill="none" xmlns="http://www.w3.org/2000/svg">
<path d="M6.46842 2.21698L7.53817 1.89454C8.75046 1.52912 10.0458 2.11966 10.5649 3.2745L11.3914 5.11308C11.8339 6.09743 11.6007 7.25427 10.8114 7.99031L9.44167 9.26767C9.40161 9.30498 9.37622 9.3554 9.37017 9.40985C9.32956 9.77385 9.57633 10.4828 10.1448 11.4676C10.5584 12.1838 10.9325 12.6859 11.2511 12.9684C11.473 13.1652 11.5952 13.2078 11.6473 13.1923L13.49 12.6289C14.5218 12.3135 15.64 12.6896 16.2713 13.5645L17.4453 15.1916C18.1842 16.2157 18.0514 17.6286 17.1344 18.4969L16.3219 19.2664C15.4452 20.0967 14.1971 20.4061 13.0341 20.0815C10.5095 19.3769 8.24597 17.2463 6.21841 13.7346C4.18804 10.2179 3.47562 7.18878 4.13236 4.64797C4.43291 3.4852 5.31853 2.56359 6.46842 2.21698ZM6.86525 3.53347C6.17531 3.74144 5.64394 4.29441 5.46361 4.99207C4.91118 7.12929 5.54263 9.8141 7.4092 13.0471C9.27328 16.2757 11.2798 18.1643 13.4038 18.7571C14.1015 18.9519 14.8504 18.7663 15.3764 18.2681L16.1889 17.4986C16.6057 17.1039 16.6661 16.4617 16.3302 15.9962L15.1563 14.3691C14.8693 13.9715 14.3611 13.8004 13.892 13.9439L12.0446 14.5086C10.9724 14.8283 9.99918 13.9652 8.9541 12.1551C8.24982 10.9353 7.92157 9.9923 8.00367 9.25722C8.04621 8.87636 8.22365 8.52336 8.50389 8.26202L9.87369 6.98469C10.2325 6.65013 10.3384 6.12429 10.1373 5.67687L9.31077 3.83829C9.07479 3.31336 8.48603 3.04493 7.935 3.21103L6.86525 3.53347Z" fill="white"/>
</svg>
