<svg width="22" height="22" viewBox="0 0 22 22" fill="none" xmlns="http://www.w3.org/2000/svg">
<path d="M4.81251 3.66675H17.1875C18.7761 3.66675 20.0743 4.91016 20.162 6.47686L20.1667 6.64591V15.3542C20.1667 16.9428 18.9232 18.241 17.3565 18.3287L17.1875 18.3334H4.81251C3.2239 18.3334 1.9257 17.09 1.83806 15.5233L1.83334 15.3542V6.64591C1.83334 5.0573 3.07676 3.7591 4.64346 3.67146L4.81251 3.66675H17.1875H4.81251ZM18.7917 8.592L11.3202 12.5251C11.1484 12.6155 10.9479 12.6284 10.7679 12.5639L10.6798 12.5251L3.20834 8.59291V15.3542C3.20834 16.1959 3.85653 16.8862 4.68094 16.9531L4.81251 16.9584H17.1875C18.0292 16.9584 18.7194 16.3102 18.7864 15.4858L18.7917 15.3542V8.592ZM17.1875 5.04175H4.81251C3.97085 5.04175 3.28059 5.68993 3.21366 6.51435L3.20834 6.64591V7.03916L11 11.1399L18.7917 7.03825V6.64591C18.7917 5.80426 18.1435 5.11399 17.3191 5.04706L17.1875 5.04175Z" fill="white"/>
</svg>
