<svg width="22" height="22" viewBox="0 0 22 22" fill="none" xmlns="http://www.w3.org/2000/svg">
<path d="M5.35612 4.18715C8.47317 1.0701 13.5269 1.0701 16.6439 4.18715C19.761 7.30419 19.761 12.358 16.6439 15.475L15.5558 16.5511C14.7539 17.3381 13.7133 18.3501 12.4339 19.5872C11.6343 20.3603 10.3658 20.3602 9.56635 19.587L6.36617 16.4741C5.96397 16.0792 5.62731 15.7461 5.35612 15.475C2.23908 12.358 2.23908 7.30419 5.35612 4.18715ZM15.6716 5.15942C13.0916 2.57934 8.90847 2.57934 6.32839 5.15942C3.74833 7.73949 3.74833 11.9226 6.32839 14.5027L7.69155 15.8479C8.44221 16.5825 9.38585 17.4995 10.5222 18.5986C10.7887 18.8563 11.2116 18.8564 11.4781 18.5987L14.59 15.5723C15.02 15.1504 15.3805 14.7938 15.6716 14.5027C18.2518 11.9226 18.2518 7.73949 15.6716 5.15942ZM11 7.33191C12.5196 7.33191 13.7515 8.56376 13.7515 10.0833C13.7515 11.6029 12.5196 12.8347 11 12.8347C9.48045 12.8347 8.24861 11.6029 8.24861 10.0833C8.24861 8.56376 9.48045 7.33191 11 7.33191ZM11 8.70691C10.2398 8.70691 9.62364 9.32315 9.62364 10.0833C9.62364 10.8435 10.2398 11.4597 11 11.4597C11.7602 11.4597 12.3765 10.8435 12.3765 10.0833C12.3765 9.32315 11.7602 8.70691 11 8.70691Z" fill="white"/>
</svg>
